<?xml version="1.0" standalone="no"?><!DOCTYPE svg PUBLIC "-//W3C//DTD SVG 1.1//EN" "http://www.w3.org/Graphics/SVG/1.1/DTD/svg11.dtd"><svg t="1653064412547" class="icon" viewBox="0 0 1024 1024" version="1.1" xmlns="http://www.w3.org/2000/svg" p-id="9369" xmlns:xlink="http://www.w3.org/1999/xlink" width="100" height="100"><defs><style type="text/css">@font-face { font-family: feedback-iconfont; src: url("//at.alicdn.com/t/font_1031158_u69w8yhxdu.woff2?t=1630033759944") format("woff2"), url("//at.alicdn.com/t/font_1031158_u69w8yhxdu.woff?t=1630033759944") format("woff"), url("//at.alicdn.com/t/font_1031158_u69w8yhxdu.ttf?t=1630033759944") format("truetype"); }
</style></defs><path d="M379.6 960.2c-69.1 0-138.3-26.3-190.9-78.9-51-51-79.1-118.8-79.1-190.9s28.1-139.9 79.1-190.9l377.7-377.7C643.1 45 768 45 844.8 121.8 882 159 902.5 208.4 902.5 261c0 52.6-20.5 102-57.7 139.2L466 779c-48.3 48.3-126.8 48.3-175.1 0s-48.3-126.8 0-175.1l363.3-363.3c18.9-18.9 49.6-18.9 68.5 0s18.9 49.6 0 68.5L359.4 672.4c-10.5 10.5-10.5 27.6 0 38.1s27.6 10.5 38.1 0l378.7-378.8c39-39 39-102.4 0-141.4-18.9-18.9-44-29.3-70.7-29.3-26.7 0-51.8 10.4-70.7 29.3L257.2 568c-32.7 32.7-50.7 76.2-50.7 122.4s18 89.7 50.7 122.4c67.5 67.5 177.3 67.5 244.8 0l326-326c18.9-18.9 49.6-18.9 68.5 0s18.9 49.6 0 68.5l-326 326c-52.7 52.6-121.8 78.9-190.9 78.9z" p-id="9370"></path></svg>
