<?xml version="1.0" standalone="no"?><!DOCTYPE svg PUBLIC "-//W3C//DTD SVG 1.1//EN" "http://www.w3.org/Graphics/SVG/1.1/DTD/svg11.dtd"><svg class="icon" width="200px" height="200.00px" viewBox="0 0 1024 1024" version="1.1" xmlns="http://www.w3.org/2000/svg"><path d="M180.138667 180.138667A468.010667 468.010667 0 0 1 512 42.666667c129.578667 0 246.997333 52.565333 331.861333 137.472A468.010667 468.010667 0 0 1 981.333333 512c0 129.578667-52.565333 246.997333-137.472 331.861333A468.010667 468.010667 0 0 1 512 981.333333a468.010667 468.010667 0 0 1-331.861333-137.472A468.010667 468.010667 0 0 1 42.666667 512c0-129.578667 52.565333-246.997333 137.472-331.861333z m575.36 234.026666a42.666667 42.666667 0 0 0-60.330667-60.330666L469.333333 579.669333l-97.834666-97.834666a42.666667 42.666667 0 0 0-60.330667 60.330666l128 128a42.666667 42.666667 0 0 0 60.330667 0l256-256z" /></svg>