<?xml version="1.0" standalone="no"?><!DOCTYPE svg PUBLIC "-//W3C//DTD SVG 1.1//EN" "http://www.w3.org/Graphics/SVG/1.1/DTD/svg11.dtd"><svg t="1647014222041" class="icon" viewBox="0 0 1024 1024" version="1.1" xmlns="http://www.w3.org/2000/svg" p-id="9384" xmlns:xlink="http://www.w3.org/1999/xlink" width="100" height="100"><defs><style type="text/css"></style></defs><path d="M511.3 962.6c-247 0-448-201-448-448s201-448 448-448 448 201 448 448-200.9 448-448 448z m0-806.4c-197.6 0-358.4 160.8-358.4 358.4S313.7 873 511.3 873s358.4-160.8 358.4-358.4S709 156.2 511.3 156.2z"  p-id="9385"></path><path d="M511.3 649m-50.4 0a50.4 50.4 0 1 0 100.8 0 50.4 50.4 0 1 0-100.8 0Z"  p-id="9386"></path><path d="M511.3 559.4c-24.7 0-44.8-20.1-44.8-44.8V333.1c0-24.7 20.1-44.8 44.8-44.8s44.8 20.1 44.8 44.8v181.4c0 24.8-20 44.9-44.8 44.9z"  p-id="9387"></path></svg>