<?xml version="1.0" standalone="no"?><!DOCTYPE svg PUBLIC "-//W3C//DTD SVG 1.1//EN" "http://www.w3.org/Graphics/SVG/1.1/DTD/svg11.dtd"><svg class="icon" width="200px" height="200.00px" viewBox="0 0 1024 1024" version="1.1" xmlns="http://www.w3.org/2000/svg"><path d="M704 292.8c-68.8-97.2-135-157-181.6-193.2-6.2-4.8-14.6-4.8-20.8-0.2-46 34.2-112.2 96.8-181 193-74.6 104-126 216.8-128.4 341.8 0 2.4-0.2 5-0.2 7.4 0 36.8 7.8 71.8 21.8 104.2 8.2 18.6 18.4 36.2 30.4 52.6 57 78 155.6 129.6 267.6 129.6 176.8 0 320.2-128.2 320.2-286.4 0-127.4-54-244.4-128-348.8z m-172 528.6h-1c-19.8 0-24-28.2-5.2-34.2 90.2-28.4 139.2-77 172.8-161.6 7-17.8 33.4-13 33.6 6.2v2.8c-0.2 103.2-89.8 186.8-200.2 186.8z" /></svg>