<?xml version="1.0" standalone="no"?><!DOCTYPE svg PUBLIC "-//W3C//DTD SVG 1.1//EN" "http://www.w3.org/Graphics/SVG/1.1/DTD/svg11.dtd"><svg class="icon" width="200px" height="200.00px" viewBox="0 0 1024 1024" version="1.1" xmlns="http://www.w3.org/2000/svg"><path d="M907.8 757.4c-103.6-16-111.4-23.4-111.4-23.4 31.2-148-44.8-302.2-152.6-391.2C500.2 224.4 282 310.4 112 130.4c-39.6-42-16.6 471 196.2 665.4 155.6 142 338.8 98.4 389 75.2 45.6-21.2 77.4-67.8 77.4-67.8 83 26 124 28.4 124 28.4 29.2 3.6 44-68.8 9.2-74.2z m-183.6 14.8c-155.4-46.6-290.6-162-378.2-252.4-7.2-7.4 3.2-18.4 11-12 86.2 71 217.8 160 386.6 215.8 0.4 16.2-9 39.4-19.4 48.6z" /></svg>