<?xml version="1.0" standalone="no"?><!DOCTYPE svg PUBLIC "-//W3C//DTD SVG 1.1//EN" "http://www.w3.org/Graphics/SVG/1.1/DTD/svg11.dtd"><svg class="icon" width="200px" height="200.00px" viewBox="0 0 1024 1024" version="1.1" xmlns="http://www.w3.org/2000/svg"><path d="M832 282.2c-37.8 7.8-73.6 16.4-107.4 25.6-81 22-151 49.8-210.8 76.4-38.6 17.2-52.4 24.8-103 51.8C294 497.8 224 578 224 698c0 135.6 111.2 230 288 230s288-102.4 288-238c0-135.4-122-229.4 32-407.8zM270.8 483.6c25.6-21 62.4-47.8 112.2-76.8 12.8-7.6 26.6-15.2 41.2-22.8 23.2-12.2 47-23.8 71.6-34.8-18.2-20.2-44.2-38.2-73.2-54C325.2 242.2 192 214.8 192 214.8c83 87.4 89.2 193 78.8 268.8zM704 155.4s-147.6-1.8-251.6 110c0 0 55.4 34.6 85.4 64.6 74.4-31.2 164.6-57.2 230.4-72-13-43.4-64.2-102.6-64.2-102.6zM479.4 194C420.6 119 352 96 352 96c-30.6 41.6-48.6 76-58 103.4 42.2 11.8 73 24.6 124.8 49.4 19-21.2 36.2-38.2 60.6-54.8z" /></svg>