<?xml version="1.0" standalone="no"?><!DOCTYPE svg PUBLIC "-//W3C//DTD SVG 1.1//EN" "http://www.w3.org/Graphics/SVG/1.1/DTD/svg11.dtd"><svg t="1647173765238" class="icon" viewBox="0 0 1024 1024" version="1.1" xmlns="http://www.w3.org/2000/svg" p-id="7518" xmlns:xlink="http://www.w3.org/1999/xlink" width="100" height="100"><defs><style type="text/css"></style></defs><path d="M881.8 883.1H595c-24.8 0-44.8-20.1-44.8-44.8s20.1-44.8 44.8-44.8h286.8c24.8 0 44.8 20.1 44.8 44.8s-20 44.8-44.8 44.8zM881.8 675.6H595c-24.8 0-44.8-20.1-44.8-44.8 0-24.8 20.1-44.8 44.8-44.8h286.8c24.8 0 44.8 20.1 44.8 44.8 0.1 24.7-20 44.8-44.8 44.8zM354.2 928H231.4c-73.8 0-133.9-60.1-133.9-133.9V674.9c0-73.8 60.1-133.9 133.9-133.9h122.8c73.8 0 133.9 60.1 133.9 133.9V794c0 73.9-60.1 134-133.9 134zM231.4 630.7c-24.4 0-44.2 19.8-44.2 44.2V794c0 24.4 19.8 44.2 44.2 44.2h122.8c24.4 0 44.2-19.8 44.2-44.2V674.9c0-24.4-19.8-44.2-44.2-44.2H231.4zM881.8 440.3H595c-24.8 0-44.8-20.1-44.8-44.8s20.1-44.8 44.8-44.8h286.8c24.8 0 44.8 20.1 44.8 44.8s-20 44.8-44.8 44.8zM881.8 232.8H595c-24.8 0-44.8-20.1-44.8-44.8s20.1-44.8 44.8-44.8h286.8c24.8 0 44.8 20.1 44.8 44.8s-20 44.8-44.8 44.8zM354.2 485.2H231.4c-73.8 0-133.9-60.1-133.9-133.9V232.1c0-73.8 60.1-133.9 133.9-133.9h122.8c73.8 0 133.9 60.1 133.9 133.9v119.1c0 73.9-60.1 134-133.9 134zM231.4 187.9c-24.4 0-44.2 19.8-44.2 44.2v119.1c0 24.4 19.8 44.2 44.2 44.2h122.8c24.4 0 44.2-19.8 44.2-44.2V232.1c0-24.4-19.8-44.2-44.2-44.2H231.4z"  p-id="7519"></path></svg>