<?xml version="1.0" standalone="no"?><!DOCTYPE svg PUBLIC "-//W3C//DTD SVG 1.1//EN" "http://www.w3.org/Graphics/SVG/1.1/DTD/svg11.dtd"><svg t="1654099739131" class="icon" viewBox="0 0 1024 1024" version="1.1" xmlns="http://www.w3.org/2000/svg" p-id="9529" xmlns:xlink="http://www.w3.org/1999/xlink" width="100" height="100"><defs><style type="text/css">@font-face { font-family: feedback-iconfont; src: url("//at.alicdn.com/t/font_1031158_u69w8yhxdu.woff2?t=1630033759944") format("woff2"), url("//at.alicdn.com/t/font_1031158_u69w8yhxdu.woff?t=1630033759944") format("woff"), url("//at.alicdn.com/t/font_1031158_u69w8yhxdu.ttf?t=1630033759944") format("truetype"); }
</style></defs><path d="M342.4 855.1c-23.4 0-42.4-19-42.4-42.4V211c0-21 15.3-38.8 36.1-41.9l542.8-81c12.2-1.8 24.6 1.8 33.9 9.8 9.3 8 14.7 19.8 14.7 32.1v601.7c0 23.4-19 42.4-42.4 42.4s-42.4-19-42.4-42.4V179.2l-458.1 68.4v565.2c0.1 23.4-18.8 42.3-42.2 42.3z"  p-id="9530"></path><path d="M342.3 463.9c-20.6 0-38.7-15.1-41.8-36.1-3.5-23.1 12.5-44.7 35.7-48.1l542.8-81c22.9-3.5 44.7 12.5 48.1 35.6 3.5 23.1-12.5 44.7-35.7 48.1l-542.8 81c-2.1 0.4-4.2 0.5-6.3 0.5zM240.9 934.7C161.5 934.7 97 877.1 97 806.3s64.5-128.4 143.9-128.4c79.3 0 143.9 57.6 143.9 128.4s-64.6 128.4-143.9 128.4z m0-172.1c-32.1 0-59.2 20-59.2 43.7s27.1 43.7 59.2 43.7 59.2-20 59.2-43.7-27.2-43.7-59.2-43.7zM783 853.7c-79.3 0-143.9-57.6-143.9-128.4S703.7 596.9 783 596.9s143.9 57.6 143.9 128.4S862.3 853.7 783 853.7z m0-172.1c-32.1 0-59.2 20-59.2 43.7 0 23.7 27.1 43.7 59.2 43.7s59.2-20 59.2-43.7c0-23.7-27.1-43.7-59.2-43.7z"  p-id="9531"></path></svg>
