<?xml version="1.0" standalone="no"?><!DOCTYPE svg PUBLIC "-//W3C//DTD SVG 1.1//EN" "http://www.w3.org/Graphics/SVG/1.1/DTD/svg11.dtd"><svg class="icon" width="200px" height="200.00px" viewBox="0 0 1024 1024" version="1.1" xmlns="http://www.w3.org/2000/svg"><path d="M941.21984 520.43776a40.96 40.96 0 0 1-38.35904 26.58304h-96.9728v311.93088a40.96 40.96 0 0 1-40.96 40.96h-172.52352a40.96 40.96 0 0 1-40.96-40.96v-151.16288h-78.92992v151.16288a40.96 40.96 0 0 1-40.96 40.96h-172.52352a40.96 40.96 0 0 1-40.96-40.96v-311.95136h-96.9728a40.96 40.96 0 0 1-26.9312-71.82336l390.88128-340.97152a40.98048 40.98048 0 0 1 53.8624 0l58.59328 51.13856a40.96 40.96 0 0 1 40.09984-32.50176h100.51584a40.96 40.96 0 0 1 40.96 40.96v149.93408l150.71232 131.4816c12.88192 11.18208 17.42848 29.22496 11.42784 45.21984z" /></svg>