<?xml version="1.0" standalone="no"?><!DOCTYPE svg PUBLIC "-//W3C//DTD SVG 1.1//EN" "http://www.w3.org/Graphics/SVG/1.1/DTD/svg11.dtd"><svg class="icon" width="200px" height="200.00px" viewBox="0 0 1024 1024" version="1.1" xmlns="http://www.w3.org/2000/svg"><path d="M513.46384 60.225663c-248.292969 0-449.584462 201.299679-449.584462 449.625394 0 248.296039 201.291492 449.594695 449.584462 449.594695 248.28069 0 449.63665-201.299679 449.63665-449.594695C963.099467 261.525342 761.744529 60.225663 513.46384 60.225663zM554.626331 714.465225c0 22.720468-18.416442 41.139979-41.136909 41.139979s-41.136909-18.419512-41.136909-41.139979L472.352513 453.586612c0-22.716374 18.416442-41.135886 41.136909-41.135886s41.136909 18.419512 41.136909 41.135886L554.626331 714.465225zM513.489422 372.423081c-25.719778 0-46.561455-20.845771-46.561455-46.557362 0-25.719778 20.841677-46.560432 46.561455-46.560432s46.561455 20.841677 46.561455 46.560432C560.050878 351.577311 539.2092 372.423081 513.489422 372.423081z" /></svg>