<?xml version="1.0" standalone="no"?><!DOCTYPE svg PUBLIC "-//W3C//DTD SVG 1.1//EN" "http://www.w3.org/Graphics/SVG/1.1/DTD/svg11.dtd"><svg class="icon" width="200px" height="200.00px" viewBox="0 0 1024 1024" version="1.1" xmlns="http://www.w3.org/2000/svg"><path d="M771.605333 218.624C687.850667 264.512 602.965333 279.808 527.018667 279.808 380.202667 279.808 266.858667 222.656 259.776 219.008 244.053333 210.901333 237.888 191.594667 245.994667 175.893333 254.122667 160.192 273.386667 154.026667 289.066667 162.112 291.413333 163.306667 525.525333 280.448 740.864 162.496 756.309333 154.048 775.808 159.658667 784.298667 175.189333 792.789333 190.677333 787.114667 210.133333 771.605333 218.624L771.605333 218.624ZM658.496 690.176C676.16 690.176 690.496 704.490667 690.496 722.176 690.496 739.84 676.16 754.176 658.496 754.176L547.328 754.176 547.328 836.501333C547.328 854.165333 532.992 868.501333 515.328 868.501333 497.664 868.501333 483.328 854.165333 483.328 836.501333L483.328 754.176 372.138667 754.176C354.474667 754.176 340.138667 739.84 340.138667 722.176 340.138667 704.490667 354.474667 690.176 372.138667 690.176L483.328 690.176 483.328 636.245333 372.138667 636.245333C354.474667 636.245333 340.138667 621.909333 340.138667 604.245333 340.138667 586.581333 354.474667 572.245333 372.138667 572.245333L455.616 572.245333 367.317333 439.509333C357.525333 424.768 361.514667 404.906667 376.234667 395.114667 390.954667 385.344 410.816 389.354667 420.608 404.032L513.6 543.850667 606.613333 404.032C616.426667 389.333333 636.288 385.365333 650.986667 395.114667 665.685333 404.906667 669.696 424.768 659.904 439.509333L571.605333 572.245333 658.496 572.245333C676.16 572.245333 690.496 586.581333 690.496 604.245333 690.496 621.909333 676.16 636.245333 658.496 636.245333L547.328 636.245333 547.328 690.176 658.496 690.176ZM735.04 0 288.96 0C176.682667 0 85.333333 91.349333 85.333333 203.626667L85.333333 820.373333C85.333333 932.650667 176.682667 1024 288.96 1024L735.04 1024C847.317333 1024 938.666667 932.650667 938.666667 820.373333L938.666667 203.626667C938.666667 91.349333 847.317333 0 735.04 0L735.04 0Z" /></svg>